<?xml version="1.0" encoding="utf-8"?><svg width="5000" height="300" xmlns="http://www.w3.org/2000/svg">
  <polyline points="30.0,96.30000000000001 70.5,96.30000000000001 111.0,95.70000000000002 151.5,95.4 192.0,95.1 232.5,93.9 273.0,92.4 313.5,91.80000000000001 354.0,91.20000000000002 394.5,90.6 435.0,90.30000000000001 475.5,90.30000000000001 516.0,90.0 556.5,89.70000000000002 597.0,89.70000000000002 637.5,89.1 678.0,89.1 718.5,88.80000000000001 759.0,86.1 799.5,77.70000000000002 840.0,76.80000000000001 880.5,76.5 921.0,76.20000000000002 961.5,76.5 1002.0,77.4 1042.5,79.80000000000001 1083.0,81.9 1123.5,82.20000000000002 1164.0,83.4 1204.5,84.9 1245.0,85.5 1285.5,85.80000000000001 1326.0,86.1 1366.5,86.70000000000002 1407.0,87.30000000000001 1447.5,87.6 1488.0,87.6 1528.5,87.30000000000001 1569.0,87.0 1609.5,86.70000000000002 1650.0,86.70000000000002 1690.5,86.4 1731.0,86.70000000000002 1771.5,86.70000000000002 1812.0,86.70000000000002 1852.5,87.6 1893.0,87.6 1933.5,88.5 1974.0,89.4 2014.5,92.1 2055.0,92.4 2095.5,92.4 2136.0,92.4 2176.5,92.70000000000002 2217.0,92.70000000000002 2257.5,92.70000000000002 2298.0,92.70000000000002 2338.5,92.4 2379.0,91.80000000000001 2419.5,91.80000000000001 2460.0,91.80000000000001 2500.5,91.80000000000001 2541.0,91.80000000000001 2581.5,90.9 2622.0,90.0 2662.5,89.70000000000002 2703.0,89.4 2743.5,89.1 2784.0,89.4 2824.5,89.70000000000002 2865.0,90.30000000000001 2905.5,90.6 2946.0,90.9 2986.5,91.5 3027.0,92.1 3067.5,94.20000000000002 3108.0,94.5 3148.5,95.1 3189.0,95.4 3229.5,95.70000000000002 3229.5,300 30.0,300 30.0,96.30000000000001" stroke="blue" stroke-width="2" fill="lightblue" fill-opacity="0.5"/>
  <line x1="30.0" y1="300" x2="3229.5" y2="300" stroke="black" stroke-width="1" stroke-dasharray="5,5"/>
  <text x="30.0" y="73.30000000000001" style="writing-mode: tb; glyph-orientation-vertical: 1;">
 0 --- 679.0m (0.0m)
  </text>
  <text x="70.5" y="73.30000000000001" style="writing-mode: tb; glyph-orientation-vertical: 1;">
 1 --- 679.0m (69.6m)
  </text>
  <text x="111.0" y="72.70000000000002" style="writing-mode: tb; glyph-orientation-vertical: 1;">
 2 --- 681.0m (133.81m)
  </text>
  <text x="151.5" y="72.4" style="writing-mode: tb; glyph-orientation-vertical: 1;">
 3 --- 682.0m (145.81m)
  </text>
  <text x="192.0" y="72.1" style="writing-mode: tb; glyph-orientation-vertical: 1;">
 4 --- 683.0m (166.29m)
  </text>
  <text x="232.5" y="70.9" style="writing-mode: tb; glyph-orientation-vertical: 1;">
 5 --- 687.0m (232.93m)
  </text>
  <text x="273.0" y="69.4" style="writing-mode: tb; glyph-orientation-vertical: 1;">
 6 --- 692.0m (275.89m)
  </text>
  <text x="313.5" y="68.80000000000001" style="writing-mode: tb; glyph-orientation-vertical: 1;">
 7 --- 694.0m (305.31m)
  </text>
  <text x="354.0" y="68.20000000000002" style="writing-mode: tb; glyph-orientation-vertical: 1;">
 8 --- 696.0m (386.6m)
  </text>
  <text x="394.5" y="67.6" style="writing-mode: tb; glyph-orientation-vertical: 1;">
 9 --- 698.0m (521.31m)
  </text>
  <text x="435.0" y="67.30000000000001" style="writing-mode: tb; glyph-orientation-vertical: 1;">
 10 --- 699.0m (656.02m)
  </text>
  <text x="475.5" y="67.30000000000001" style="writing-mode: tb; glyph-orientation-vertical: 1;">
 11 --- 699.0m (754.26m)
  </text>
  <text x="516.0" y="67.0" style="writing-mode: tb; glyph-orientation-vertical: 1;">
 12 --- 700.0m (876.39m)
  </text>
  <text x="556.5" y="66.70000000000002" style="writing-mode: tb; glyph-orientation-vertical: 1;">
 13 --- 701.0m (998.52m)
  </text>
  <text x="597.0" y="66.70000000000002" style="writing-mode: tb; glyph-orientation-vertical: 1;">
 14 --- 701.0m (1043.0m)
  </text>
  <text x="637.5" y="66.1" style="writing-mode: tb; glyph-orientation-vertical: 1;">
 15 --- 703.0m (1114.11m)
  </text>
  <text x="678.0" y="66.1" style="writing-mode: tb; glyph-orientation-vertical: 1;">
 16 --- 703.0m (1185.22m)
  </text>
  <text x="718.5" y="65.80000000000001" style="writing-mode: tb; glyph-orientation-vertical: 1;">
 17 --- 704.0m (1341.68m)
  </text>
  <text x="759.0" y="63.099999999999994" style="writing-mode: tb; glyph-orientation-vertical: 1;">
 18 --- 713.0m (1555.03m)
  </text>
  <text x="799.5" y="54.70000000000002" style="writing-mode: tb; glyph-orientation-vertical: 1;">
 19 --- 741.0m (1567.31m)
  </text>
  <text x="840.0" y="53.80000000000001" style="writing-mode: tb; glyph-orientation-vertical: 1;">
 20 --- 744.0m (1584.48m)
  </text>
  <text x="880.5" y="53.5" style="writing-mode: tb; glyph-orientation-vertical: 1;">
 21 --- 745.0m (1675.0m)
  </text>
  <text x="921.0" y="53.20000000000002" style="writing-mode: tb; glyph-orientation-vertical: 1;">
 22 --- 746.0m (1730.78m)
  </text>
  <text x="961.5" y="53.5" style="writing-mode: tb; glyph-orientation-vertical: 1;">
 23 --- 745.0m (1808.66m)
  </text>
  <text x="1002.0" y="54.400000000000006" style="writing-mode: tb; glyph-orientation-vertical: 1;">
 24 --- 742.0m (1973.55m)
  </text>
  <text x="1042.5" y="56.80000000000001" style="writing-mode: tb; glyph-orientation-vertical: 1;">
 25 --- 734.0m (2142.03m)
  </text>
  <text x="1083.0" y="58.900000000000006" style="writing-mode: tb; glyph-orientation-vertical: 1;">
 26 --- 727.0m (2356.25m)
  </text>
  <text x="1123.5" y="59.20000000000002" style="writing-mode: tb; glyph-orientation-vertical: 1;">
 27 --- 726.0m (2570.47m)
  </text>
  <text x="1164.0" y="60.400000000000006" style="writing-mode: tb; glyph-orientation-vertical: 1;">
 28 --- 722.0m (2784.69m)
  </text>
  <text x="1204.5" y="61.900000000000006" style="writing-mode: tb; glyph-orientation-vertical: 1;">
 29 --- 717.0m (2811.85m)
  </text>
  <text x="1245.0" y="62.5" style="writing-mode: tb; glyph-orientation-vertical: 1;">
 30 --- 715.0m (2834.6m)
  </text>
  <text x="1285.5" y="62.80000000000001" style="writing-mode: tb; glyph-orientation-vertical: 1;">
 31 --- 714.0m (2856.28m)
  </text>
  <text x="1326.0" y="63.099999999999994" style="writing-mode: tb; glyph-orientation-vertical: 1;">
 32 --- 713.0m (2907.04m)
  </text>
  <text x="1366.5" y="63.70000000000002" style="writing-mode: tb; glyph-orientation-vertical: 1;">
 33 --- 711.0m (2952.59m)
  </text>
  <text x="1407.0" y="64.30000000000001" style="writing-mode: tb; glyph-orientation-vertical: 1;">
 34 --- 709.0m (3007.71m)
  </text>
  <text x="1447.5" y="64.6" style="writing-mode: tb; glyph-orientation-vertical: 1;">
 35 --- 708.0m (3047.72m)
  </text>
  <text x="1488.0" y="64.6" style="writing-mode: tb; glyph-orientation-vertical: 1;">
 36 --- 708.0m (3102.88m)
  </text>
  <text x="1528.5" y="64.30000000000001" style="writing-mode: tb; glyph-orientation-vertical: 1;">
 37 --- 709.0m (3140.29m)
  </text>
  <text x="1569.0" y="64.0" style="writing-mode: tb; glyph-orientation-vertical: 1;">
 38 --- 710.0m (3200.69m)
  </text>
  <text x="1609.5" y="63.70000000000002" style="writing-mode: tb; glyph-orientation-vertical: 1;">
 39 --- 711.0m (3237.78m)
  </text>
  <text x="1650.0" y="63.70000000000002" style="writing-mode: tb; glyph-orientation-vertical: 1;">
 40 --- 711.0m (3258.48m)
  </text>
  <text x="1690.5" y="63.400000000000006" style="writing-mode: tb; glyph-orientation-vertical: 1;">
 41 --- 712.0m (3285.6m)
  </text>
  <text x="1731.0" y="63.70000000000002" style="writing-mode: tb; glyph-orientation-vertical: 1;">
 42 --- 711.0m (3316.0m)
  </text>
  <text x="1771.5" y="63.70000000000002" style="writing-mode: tb; glyph-orientation-vertical: 1;">
 43 --- 711.0m (3348.95m)
  </text>
  <text x="1812.0" y="63.70000000000002" style="writing-mode: tb; glyph-orientation-vertical: 1;">
 44 --- 711.0m (3380.01m)
  </text>
  <text x="1852.5" y="64.6" style="writing-mode: tb; glyph-orientation-vertical: 1;">
 45 --- 708.0m (3394.47m)
  </text>
  <text x="1893.0" y="64.6" style="writing-mode: tb; glyph-orientation-vertical: 1;">
 46 --- 708.0m (3408.63m)
  </text>
  <text x="1933.5" y="65.5" style="writing-mode: tb; glyph-orientation-vertical: 1;">
 47 --- 705.0m (3431.54m)
  </text>
  <text x="1974.0" y="66.4" style="writing-mode: tb; glyph-orientation-vertical: 1;">
 48 --- 702.0m (3574.33m)
  </text>
  <text x="2014.5" y="69.1" style="writing-mode: tb; glyph-orientation-vertical: 1;">
 49 --- 693.0m (3586.93m)
  </text>
  <text x="2055.0" y="69.4" style="writing-mode: tb; glyph-orientation-vertical: 1;">
 50 --- 692.0m (3606.81m)
  </text>
  <text x="2095.5" y="69.4" style="writing-mode: tb; glyph-orientation-vertical: 1;">
 51 --- 692.0m (3620.7m)
  </text>
  <text x="2136.0" y="69.4" style="writing-mode: tb; glyph-orientation-vertical: 1;">
 52 --- 692.0m (3656.31m)
  </text>
  <text x="2176.5" y="69.70000000000002" style="writing-mode: tb; glyph-orientation-vertical: 1;">
 53 --- 691.0m (3675.1m)
  </text>
  <text x="2217.0" y="69.70000000000002" style="writing-mode: tb; glyph-orientation-vertical: 1;">
 54 --- 691.0m (3691.17m)
  </text>
  <text x="2257.5" y="69.70000000000002" style="writing-mode: tb; glyph-orientation-vertical: 1;">
 55 --- 691.0m (3723.89m)
  </text>
  <text x="2298.0" y="69.70000000000002" style="writing-mode: tb; glyph-orientation-vertical: 1;">
 56 --- 691.0m (3763.85m)
  </text>
  <text x="2338.5" y="69.4" style="writing-mode: tb; glyph-orientation-vertical: 1;">
 57 --- 692.0m (3779.13m)
  </text>
  <text x="2379.0" y="68.80000000000001" style="writing-mode: tb; glyph-orientation-vertical: 1;">
 58 --- 694.0m (3796.7m)
  </text>
  <text x="2419.5" y="68.80000000000001" style="writing-mode: tb; glyph-orientation-vertical: 1;">
 59 --- 694.0m (3832.61m)
  </text>
  <text x="2460.0" y="68.80000000000001" style="writing-mode: tb; glyph-orientation-vertical: 1;">
 60 --- 694.0m (3865.53m)
  </text>
  <text x="2500.5" y="68.80000000000001" style="writing-mode: tb; glyph-orientation-vertical: 1;">
 61 --- 694.0m (4001.79m)
  </text>
  <text x="2541.0" y="68.80000000000001" style="writing-mode: tb; glyph-orientation-vertical: 1;">
 62 --- 694.0m (4104.06m)
  </text>
  <text x="2581.5" y="67.9" style="writing-mode: tb; glyph-orientation-vertical: 1;">
 63 --- 697.0m (4161.38m)
  </text>
  <text x="2622.0" y="67.0" style="writing-mode: tb; glyph-orientation-vertical: 1;">
 64 --- 700.0m (4205.95m)
  </text>
  <text x="2662.5" y="66.70000000000002" style="writing-mode: tb; glyph-orientation-vertical: 1;">
 65 --- 701.0m (4267.19m)
  </text>
  <text x="2703.0" y="66.4" style="writing-mode: tb; glyph-orientation-vertical: 1;">
 66 --- 702.0m (4316.74m)
  </text>
  <text x="2743.5" y="66.1" style="writing-mode: tb; glyph-orientation-vertical: 1;">
 67 --- 703.0m (4380.28m)
  </text>
  <text x="2784.0" y="66.4" style="writing-mode: tb; glyph-orientation-vertical: 1;">
 68 --- 702.0m (4443.78m)
  </text>
  <text x="2824.5" y="66.70000000000002" style="writing-mode: tb; glyph-orientation-vertical: 1;">
 69 --- 701.0m (4485.82m)
  </text>
  <text x="2865.0" y="67.30000000000001" style="writing-mode: tb; glyph-orientation-vertical: 1;">
 70 --- 699.0m (4520.84m)
  </text>
  <text x="2905.5" y="67.6" style="writing-mode: tb; glyph-orientation-vertical: 1;">
 71 --- 698.0m (4551.92m)
  </text>
  <text x="2946.0" y="67.9" style="writing-mode: tb; glyph-orientation-vertical: 1;">
 72 --- 697.0m (4613.97m)
  </text>
  <text x="2986.5" y="68.5" style="writing-mode: tb; glyph-orientation-vertical: 1;">
 73 --- 695.0m (4676.02m)
  </text>
  <text x="3027.0" y="69.1" style="writing-mode: tb; glyph-orientation-vertical: 1;">
 74 --- 693.0m (4772.47m)
  </text>
  <text x="3067.5" y="71.20000000000002" style="writing-mode: tb; glyph-orientation-vertical: 1;">
 75 --- 686.0m (4789.04m)
  </text>
  <text x="3108.0" y="71.5" style="writing-mode: tb; glyph-orientation-vertical: 1;">
 76 --- 685.0m (4808.04m)
  </text>
  <text x="3148.5" y="72.1" style="writing-mode: tb; glyph-orientation-vertical: 1;">
 77 --- 683.0m (4858.44m)
  </text>
  <text x="3189.0" y="72.4" style="writing-mode: tb; glyph-orientation-vertical: 1;">
 78 --- 682.0m (4910.83m)
  </text>
  <text x="3229.5" y="72.70000000000002" style="writing-mode: tb; glyph-orientation-vertical: 1;">
 79 --- 681.0m (5256.24m)
  </text>
</svg>