<?xml version="1.0" encoding="utf-8"?><svg width="1900" height="300" xmlns="http://www.w3.org/2000/svg">
  <polyline points="10.0,130.25 33.0,130.25 56.0,129.75 79.0,129.5 102.0,129.25 125.0,128.25 148.0,127.0 171.0,126.5 194.0,126.0 217.0,125.5 240.0,125.25 263.0,125.25 286.0,125.0 309.0,124.75 332.0,124.75 355.0,124.25 378.0,124.25 401.0,124.0 424.0,121.75 447.0,114.75 470.0,114.0 493.0,113.75 516.0,113.5 539.0,113.75 562.0,114.5 585.0,116.5 608.0,118.25 631.0,118.5 654.0,119.5 677.0,120.75 700.0,121.25 723.0,121.5 746.0,121.75 769.0,122.25 792.0,122.75 815.0,123.0 838.0,123.0 861.0,122.75 884.0,122.5 907.0,122.25 930.0,122.25 953.0,122.0 976.0,122.25 999.0,122.25 1022.0,122.25 1045.0,123.0 1068.0,123.0 1091.0,123.75 1114.0,124.5 1137.0,126.75 1160.0,127.0 1183.0,127.0 1206.0,127.0 1229.0,127.25 1252.0,127.25 1275.0,127.25 1298.0,127.25 1321.0,127.0 1344.0,126.5 1367.0,126.5 1390.0,126.5 1413.0,126.5 1436.0,126.5 1459.0,125.75 1482.0,125.0 1505.0,124.75 1528.0,124.5 1551.0,124.25 1574.0,124.5 1597.0,124.75 1620.0,125.25 1643.0,125.5 1666.0,125.75 1689.0,126.25 1712.0,126.75 1735.0,128.5 1758.0,128.75 1781.0,129.25 1804.0,129.5 1827.0,129.75 1850.0,130.25 1850.0,300 10.0,300 10.0,130.25" stroke="blue" stroke-width="2" fill="lightblue" fill-opacity="0.5"/>
  <line x1="10.0" y1="300" x2="1850.0" y2="300" stroke="black" stroke-width="1" stroke-dasharray="5,5"/>
  <text x="10.0" y="107.25" style="writing-mode: tb; glyph-orientation-vertical: 1;">
 0 --- 679.0m (0.0m)
  </text>
  <text x="33.0" y="107.25" style="writing-mode: tb; glyph-orientation-vertical: 1;">
 1 --- 679.0m (69.6m)
  </text>
  <text x="56.0" y="106.75" style="writing-mode: tb; glyph-orientation-vertical: 1;">
 2 --- 681.0m (133.81m)
  </text>
  <text x="79.0" y="106.5" style="writing-mode: tb; glyph-orientation-vertical: 1;">
 3 --- 682.0m (145.81m)
  </text>
  <text x="102.0" y="106.25" style="writing-mode: tb; glyph-orientation-vertical: 1;">
 4 --- 683.0m (166.29m)
  </text>
  <text x="125.0" y="105.25" style="writing-mode: tb; glyph-orientation-vertical: 1;">
 5 --- 687.0m (232.93m)
  </text>
  <text x="148.0" y="104.0" style="writing-mode: tb; glyph-orientation-vertical: 1;">
 6 --- 692.0m (275.89m)
  </text>
  <text x="171.0" y="103.5" style="writing-mode: tb; glyph-orientation-vertical: 1;">
 7 --- 694.0m (305.31m)
  </text>
  <text x="194.0" y="103.0" style="writing-mode: tb; glyph-orientation-vertical: 1;">
 8 --- 696.0m (386.6m)
  </text>
  <text x="217.0" y="102.5" style="writing-mode: tb; glyph-orientation-vertical: 1;">
 9 --- 698.0m (521.31m)
  </text>
  <text x="240.0" y="102.25" style="writing-mode: tb; glyph-orientation-vertical: 1;">
 10 --- 699.0m (656.02m)
  </text>
  <text x="263.0" y="102.25" style="writing-mode: tb; glyph-orientation-vertical: 1;">
 11 --- 699.0m (754.26m)
  </text>
  <text x="286.0" y="102.0" style="writing-mode: tb; glyph-orientation-vertical: 1;">
 12 --- 700.0m (876.39m)
  </text>
  <text x="309.0" y="101.75" style="writing-mode: tb; glyph-orientation-vertical: 1;">
 13 --- 701.0m (998.52m)
  </text>
  <text x="332.0" y="101.75" style="writing-mode: tb; glyph-orientation-vertical: 1;">
 14 --- 701.0m (1043.0m)
  </text>
  <text x="355.0" y="101.25" style="writing-mode: tb; glyph-orientation-vertical: 1;">
 15 --- 703.0m (1114.11m)
  </text>
  <text x="378.0" y="101.25" style="writing-mode: tb; glyph-orientation-vertical: 1;">
 16 --- 703.0m (1185.22m)
  </text>
  <text x="401.0" y="101.0" style="writing-mode: tb; glyph-orientation-vertical: 1;">
 17 --- 704.0m (1341.68m)
  </text>
  <text x="424.0" y="98.75" style="writing-mode: tb; glyph-orientation-vertical: 1;">
 18 --- 713.0m (1555.03m)
  </text>
  <text x="447.0" y="91.75" style="writing-mode: tb; glyph-orientation-vertical: 1;">
 19 --- 741.0m (1567.31m)
  </text>
  <text x="470.0" y="91.0" style="writing-mode: tb; glyph-orientation-vertical: 1;">
 20 --- 744.0m (1584.48m)
  </text>
  <text x="493.0" y="90.75" style="writing-mode: tb; glyph-orientation-vertical: 1;">
 21 --- 745.0m (1675.0m)
  </text>
  <text x="516.0" y="90.5" style="writing-mode: tb; glyph-orientation-vertical: 1;">
 22 --- 746.0m (1730.78m)
  </text>
  <text x="539.0" y="90.75" style="writing-mode: tb; glyph-orientation-vertical: 1;">
 23 --- 745.0m (1808.66m)
  </text>
  <text x="562.0" y="91.5" style="writing-mode: tb; glyph-orientation-vertical: 1;">
 24 --- 742.0m (1973.55m)
  </text>
  <text x="585.0" y="93.5" style="writing-mode: tb; glyph-orientation-vertical: 1;">
 25 --- 734.0m (2142.03m)
  </text>
  <text x="608.0" y="95.25" style="writing-mode: tb; glyph-orientation-vertical: 1;">
 26 --- 727.0m (2356.25m)
  </text>
  <text x="631.0" y="95.5" style="writing-mode: tb; glyph-orientation-vertical: 1;">
 27 --- 726.0m (2570.47m)
  </text>
  <text x="654.0" y="96.5" style="writing-mode: tb; glyph-orientation-vertical: 1;">
 28 --- 722.0m (2784.69m)
  </text>
  <text x="677.0" y="97.75" style="writing-mode: tb; glyph-orientation-vertical: 1;">
 29 --- 717.0m (2811.85m)
  </text>
  <text x="700.0" y="98.25" style="writing-mode: tb; glyph-orientation-vertical: 1;">
 30 --- 715.0m (2834.6m)
  </text>
  <text x="723.0" y="98.5" style="writing-mode: tb; glyph-orientation-vertical: 1;">
 31 --- 714.0m (2856.28m)
  </text>
  <text x="746.0" y="98.75" style="writing-mode: tb; glyph-orientation-vertical: 1;">
 32 --- 713.0m (2907.04m)
  </text>
  <text x="769.0" y="99.25" style="writing-mode: tb; glyph-orientation-vertical: 1;">
 33 --- 711.0m (2952.59m)
  </text>
  <text x="792.0" y="99.75" style="writing-mode: tb; glyph-orientation-vertical: 1;">
 34 --- 709.0m (3007.71m)
  </text>
  <text x="815.0" y="100.0" style="writing-mode: tb; glyph-orientation-vertical: 1;">
 35 --- 708.0m (3047.72m)
  </text>
  <text x="838.0" y="100.0" style="writing-mode: tb; glyph-orientation-vertical: 1;">
 36 --- 708.0m (3102.88m)
  </text>
  <text x="861.0" y="99.75" style="writing-mode: tb; glyph-orientation-vertical: 1;">
 37 --- 709.0m (3140.29m)
  </text>
  <text x="884.0" y="99.5" style="writing-mode: tb; glyph-orientation-vertical: 1;">
 38 --- 710.0m (3200.69m)
  </text>
  <text x="907.0" y="99.25" style="writing-mode: tb; glyph-orientation-vertical: 1;">
 39 --- 711.0m (3237.78m)
  </text>
  <text x="930.0" y="99.25" style="writing-mode: tb; glyph-orientation-vertical: 1;">
 40 --- 711.0m (3258.48m)
  </text>
  <text x="953.0" y="99.0" style="writing-mode: tb; glyph-orientation-vertical: 1;">
 41 --- 712.0m (3285.6m)
  </text>
  <text x="976.0" y="99.25" style="writing-mode: tb; glyph-orientation-vertical: 1;">
 42 --- 711.0m (3316.0m)
  </text>
  <text x="999.0" y="99.25" style="writing-mode: tb; glyph-orientation-vertical: 1;">
 43 --- 711.0m (3348.95m)
  </text>
  <text x="1022.0" y="99.25" style="writing-mode: tb; glyph-orientation-vertical: 1;">
 44 --- 711.0m (3380.01m)
  </text>
  <text x="1045.0" y="100.0" style="writing-mode: tb; glyph-orientation-vertical: 1;">
 45 --- 708.0m (3394.47m)
  </text>
  <text x="1068.0" y="100.0" style="writing-mode: tb; glyph-orientation-vertical: 1;">
 46 --- 708.0m (3408.63m)
  </text>
  <text x="1091.0" y="100.75" style="writing-mode: tb; glyph-orientation-vertical: 1;">
 47 --- 705.0m (3431.54m)
  </text>
  <text x="1114.0" y="101.5" style="writing-mode: tb; glyph-orientation-vertical: 1;">
 48 --- 702.0m (3574.33m)
  </text>
  <text x="1137.0" y="103.75" style="writing-mode: tb; glyph-orientation-vertical: 1;">
 49 --- 693.0m (3586.93m)
  </text>
  <text x="1160.0" y="104.0" style="writing-mode: tb; glyph-orientation-vertical: 1;">
 50 --- 692.0m (3606.81m)
  </text>
  <text x="1183.0" y="104.0" style="writing-mode: tb; glyph-orientation-vertical: 1;">
 51 --- 692.0m (3620.7m)
  </text>
  <text x="1206.0" y="104.0" style="writing-mode: tb; glyph-orientation-vertical: 1;">
 52 --- 692.0m (3656.31m)
  </text>
  <text x="1229.0" y="104.25" style="writing-mode: tb; glyph-orientation-vertical: 1;">
 53 --- 691.0m (3675.1m)
  </text>
  <text x="1252.0" y="104.25" style="writing-mode: tb; glyph-orientation-vertical: 1;">
 54 --- 691.0m (3691.17m)
  </text>
  <text x="1275.0" y="104.25" style="writing-mode: tb; glyph-orientation-vertical: 1;">
 55 --- 691.0m (3723.89m)
  </text>
  <text x="1298.0" y="104.25" style="writing-mode: tb; glyph-orientation-vertical: 1;">
 56 --- 691.0m (3763.85m)
  </text>
  <text x="1321.0" y="104.0" style="writing-mode: tb; glyph-orientation-vertical: 1;">
 57 --- 692.0m (3779.13m)
  </text>
  <text x="1344.0" y="103.5" style="writing-mode: tb; glyph-orientation-vertical: 1;">
 58 --- 694.0m (3796.7m)
  </text>
  <text x="1367.0" y="103.5" style="writing-mode: tb; glyph-orientation-vertical: 1;">
 59 --- 694.0m (3832.61m)
  </text>
  <text x="1390.0" y="103.5" style="writing-mode: tb; glyph-orientation-vertical: 1;">
 60 --- 694.0m (3865.53m)
  </text>
  <text x="1413.0" y="103.5" style="writing-mode: tb; glyph-orientation-vertical: 1;">
 61 --- 694.0m (4001.79m)
  </text>
  <text x="1436.0" y="103.5" style="writing-mode: tb; glyph-orientation-vertical: 1;">
 62 --- 694.0m (4104.06m)
  </text>
  <text x="1459.0" y="102.75" style="writing-mode: tb; glyph-orientation-vertical: 1;">
 63 --- 697.0m (4161.38m)
  </text>
  <text x="1482.0" y="102.0" style="writing-mode: tb; glyph-orientation-vertical: 1;">
 64 --- 700.0m (4205.95m)
  </text>
  <text x="1505.0" y="101.75" style="writing-mode: tb; glyph-orientation-vertical: 1;">
 65 --- 701.0m (4267.19m)
  </text>
  <text x="1528.0" y="101.5" style="writing-mode: tb; glyph-orientation-vertical: 1;">
 66 --- 702.0m (4316.74m)
  </text>
  <text x="1551.0" y="101.25" style="writing-mode: tb; glyph-orientation-vertical: 1;">
 67 --- 703.0m (4380.28m)
  </text>
  <text x="1574.0" y="101.5" style="writing-mode: tb; glyph-orientation-vertical: 1;">
 68 --- 702.0m (4443.78m)
  </text>
  <text x="1597.0" y="101.75" style="writing-mode: tb; glyph-orientation-vertical: 1;">
 69 --- 701.0m (4485.82m)
  </text>
  <text x="1620.0" y="102.25" style="writing-mode: tb; glyph-orientation-vertical: 1;">
 70 --- 699.0m (4520.84m)
  </text>
  <text x="1643.0" y="102.5" style="writing-mode: tb; glyph-orientation-vertical: 1;">
 71 --- 698.0m (4551.92m)
  </text>
  <text x="1666.0" y="102.75" style="writing-mode: tb; glyph-orientation-vertical: 1;">
 72 --- 697.0m (4613.97m)
  </text>
  <text x="1689.0" y="103.25" style="writing-mode: tb; glyph-orientation-vertical: 1;">
 73 --- 695.0m (4676.02m)
  </text>
  <text x="1712.0" y="103.75" style="writing-mode: tb; glyph-orientation-vertical: 1;">
 74 --- 693.0m (4772.47m)
  </text>
  <text x="1735.0" y="105.5" style="writing-mode: tb; glyph-orientation-vertical: 1;">
 75 --- 686.0m (4789.04m)
  </text>
  <text x="1758.0" y="105.75" style="writing-mode: tb; glyph-orientation-vertical: 1;">
 76 --- 685.0m (4808.04m)
  </text>
  <text x="1781.0" y="106.25" style="writing-mode: tb; glyph-orientation-vertical: 1;">
 77 --- 683.0m (4858.44m)
  </text>
  <text x="1804.0" y="106.5" style="writing-mode: tb; glyph-orientation-vertical: 1;">
 78 --- 682.0m (4910.83m)
  </text>
  <text x="1827.0" y="106.75" style="writing-mode: tb; glyph-orientation-vertical: 1;">
 79 --- 681.0m (5256.24m)
  </text>
  <text x="1850.0" y="107.25" style="writing-mode: tb; glyph-orientation-vertical: 1;">
 80 --- 679.0m (5256.24m)
  </text>
</svg>