<?xml version="1.0" encoding="utf-8"?><svg width="auto" height="3620" style="overflow:visible " version="1.1" xmlns="http://www.w3.org/2000/svg"><rect x="20" y="20" width="200" height="40" style="fill:white;stroke:black;stroke-width:1" /><text x="30" y="30" font-size="10" style="fill:blue">circuito</text><rect x="240" y="20" width="200" height="40" style="fill:white;stroke:black;stroke-width:1" /><text x="250" y="30" font-size="10" style="fill:blue">caracteristicas</text><path d="M220 40 C240 40 220 40 240 40" style="fill:transparent;stroke:black" /><rect x="460" y="20" width="200" height="40" style="fill:white;stroke:black;stroke-width:1" /><text x="470" y="30" font-size="10" style="fill:blue">caracteristica</text><path d="M440 40 C460 40 440 40 460 40" style="fill:transparent;stroke:black" /><text x="470" y="40" font-size="8" style="fill:black">nombre: Red Bull Ring Spielberg</text><text x="470" y="50" font-size="8" style="fill:black">longitud: 4326</text><text x="470" y="60" font-size="8" style="fill:black">anchura: 13</text><text x="470" y="70" font-size="8" style="fill:black">localidad: Spielberg</text><text x="470" y="80" font-size="8" style="fill:black">pais: Austria</text><rect x="240" y="120" width="200" height="40" style="fill:white;stroke:black;stroke-width:1" /><text x="250" y="130" font-size="10" style="fill:blue">carrera</text><path d="M220 40 C240 40 220 140 240 140" style="fill:transparent;stroke:black" /><rect x="460" y="120" width="200" height="40" style="fill:white;stroke:black;stroke-width:1" /><text x="470" y="130" font-size="10" style="fill:blue">infoCarrera</text><path d="M440 140 C460 140 440 140 460 140" style="fill:transparent;stroke:black" /><rect x="680" y="120" width="200" height="40" style="fill:white;stroke:black;stroke-width:1" /><text x="690" y="130" font-size="10" style="fill:blue">dato</text><path d="M660 140 C680 140 660 140 680 140" style="fill:transparent;stroke:black" /><text x="690" y="140" font-size="8" style="fill:black">fecha: 17 de agosto 2025</text><text x="690" y="150" font-size="8" style="fill:black">hora: 17:00</text><text x="690" y="160" font-size="8" style="fill:black">vueltas: 28</text><text x="690" y="170" font-size="8" style="fill:black">patrocinador: Bwin</text><rect x="240" y="270" width="200" height="40" style="fill:white;stroke:black;stroke-width:1" /><text x="250" y="280" font-size="10" style="fill:blue">referencias</text><path d="M220 40 C240 40 220 290 240 290" style="fill:transparent;stroke:black" /><rect x="460" y="270" width="200" height="40" style="fill:white;stroke:black;stroke-width:1" /><text x="470" y="280" font-size="10" style="fill:blue">referencia</text><path d="M440 290 C460 290 440 290 460 290" style="fill:transparent;stroke:black" /><text x="470" y="290" font-size="8" style="fill:black">enlace: https://en.wikipedia.org/wiki/Red_Bull_Ring</text><rect x="460" y="320" width="200" height="40" style="fill:white;stroke:black;stroke-width:1" /><text x="470" y="330" font-size="10" style="fill:blue">referencia</text><path d="M440 290 C460 290 440 340 460 340" style="fill:transparent;stroke:black" /><text x="470" y="340" font-size="8" style="fill:black">enlace: https://www.redbullring.com/en/track/red-bull-ring-f1-motogp-track/</text><rect x="240" y="420" width="200" height="40" style="fill:white;stroke:black;stroke-width:1" /><text x="250" y="430" font-size="10" style="fill:blue">galeria</text><path d="M220 40 C240 40 220 440 240 440" style="fill:transparent;stroke:black" /><rect x="460" y="420" width="200" height="40" style="fill:white;stroke:black;stroke-width:1" /><text x="470" y="430" font-size="10" style="fill:blue">galeria_imagenes</text><path d="M440 440 C460 440 440 440 460 440" style="fill:transparent;stroke:black" /><rect x="680" y="420" width="200" height="40" style="fill:white;stroke:black;stroke-width:1" /><text x="690" y="430" font-size="10" style="fill:blue">foto</text><path d="M660 440 C680 440 660 440 680 440" style="fill:transparent;stroke:black" /><text x="690" y="440" font-size="8" style="fill:black">src: multimedia/circuito.jpg</text><text x="690" y="450" font-size="8" style="fill:black">alt: circuito</text><rect x="460" y="520" width="200" height="40" style="fill:white;stroke:black;stroke-width:1" /><text x="470" y="530" font-size="10" style="fill:blue">galeria_videos</text><path d="M440 440 C460 440 440 540 460 540" style="fill:transparent;stroke:black" /><rect x="680" y="520" width="200" height="40" style="fill:white;stroke:black;stroke-width:1" /><text x="690" y="530" font-size="10" style="fill:blue">video</text><path d="M660 540 C680 540 660 540 680 540" style="fill:transparent;stroke:black" /><text x="690" y="540" font-size="8" style="fill:black">src: multimedia/circuito.mp4</text><text x="690" y="550" font-size="8" style="fill:black">type: video/mp4;codecs="avc1.42E01E, mp4a.40.2"</text><rect x="240" y="670" width="200" height="40" style="fill:white;stroke:black;stroke-width:1" /><text x="250" y="680" font-size="10" style="fill:blue">coordenadas</text><path d="M220 40 C240 40 220 690 240 690" style="fill:transparent;stroke:black" /><rect x="460" y="670" width="200" height="40" style="fill:white;stroke:black;stroke-width:1" /><text x="470" y="680" font-size="10" style="fill:blue">salida</text><path d="M440 690 C460 690 440 690 460 690" style="fill:transparent;stroke:black" /><text x="470" y="690" font-size="8" style="fill:black">latitud_inicio: 47° 13' 11.85'' N</text><text x="470" y="700" font-size="8" style="fill:black">longitud_inicio: 14° 45' 53.48'' E</text><text x="470" y="710" font-size="8" style="fill:black">altitud_inicio: 682</text><rect x="460" y="720" width="200" height="40" style="fill:white;stroke:black;stroke-width:1" /><text x="470" y="730" font-size="10" style="fill:blue">tramo</text><path d="M440 690 C460 690 440 740 460 740" style="fill:transparent;stroke:black" /><text x="470" y="740" font-size="8" style="fill:black">distancia: 278.4</text><text x="470" y="750" font-size="8" style="fill:black">latitud: 47° 13' 9.49'' N</text><text x="470" y="760" font-size="8" style="fill:black">longitud: 14° 45' 40.85'' E</text><text x="470" y="770" font-size="8" style="fill:black">altitud: 690</text><text x="470" y="780" font-size="8" style="fill:black">sector: 1</text><rect x="460" y="770" width="200" height="40" style="fill:white;stroke:black;stroke-width:1" /><text x="470" y="780" font-size="10" style="fill:blue">tramo</text><path d="M440 690 C460 690 440 790 460 790" style="fill:transparent;stroke:black" /><text x="470" y="790" font-size="8" style="fill:black">distancia: 29.42</text><text x="470" y="800" font-size="8" style="fill:black">latitud: 47° 13' 9.24'' N</text><text x="470" y="810" font-size="8" style="fill:black">longitud: 14° 45' 39.52'' E</text><text x="470" y="820" font-size="8" style="fill:black">altitud: 690</text><text x="470" y="830" font-size="8" style="fill:black">sector: 1</text><rect x="460" y="820" width="200" height="40" style="fill:white;stroke:black;stroke-width:1" /><text x="470" y="830" font-size="10" style="fill:blue">tramo</text><path d="M440 690 C460 690 440 840 460 840" style="fill:transparent;stroke:black" /><text x="470" y="840" font-size="8" style="fill:black">distancia: </text><text x="470" y="850" font-size="8" style="fill:black">latitud: 47° 13' 10.22'' N</text><text x="470" y="860" font-size="8" style="fill:black">longitud: 14° 45' 38.62'' E</text><text x="470" y="870" font-size="8" style="fill:black">altitud: 690</text><text x="470" y="880" font-size="8" style="fill:black">sector: 1</text><rect x="460" y="870" width="200" height="40" style="fill:white;stroke:black;stroke-width:1" /><text x="470" y="880" font-size="10" style="fill:blue">tramo</text><path d="M440 690 C460 690 440 890 460 890" style="fill:transparent;stroke:black" /><text x="470" y="890" font-size="8" style="fill:black">distancia: </text><text x="470" y="900" font-size="8" style="fill:black">latitud: 47º 13' 12.39'' N</text><text x="470" y="910" font-size="8" style="fill:black">longitud: 14º 45' 36.36'' E</text><text x="470" y="920" font-size="8" style="fill:black">altitud: 697</text><text x="470" y="930" font-size="8" style="fill:black">sector: 1</text><rect x="460" y="920" width="200" height="40" style="fill:white;stroke:black;stroke-width:1" /><text x="470" y="930" font-size="10" style="fill:blue">tramo</text><path d="M440 690 C460 690 440 940 460 940" style="fill:transparent;stroke:black" /><text x="470" y="940" font-size="8" style="fill:black">distancia: </text><text x="470" y="950" font-size="8" style="fill:black">latitud: 47º 13' 15.94'' N</text><text x="470" y="960" font-size="8" style="fill:black">longitud: 14º 45' 32.67'' E</text><text x="470" y="970" font-size="8" style="fill:black">altitud: 692</text><text x="470" y="980" font-size="8" style="fill:black">sector: 1</text><rect x="460" y="970" width="200" height="40" style="fill:white;stroke:black;stroke-width:1" /><text x="470" y="980" font-size="10" style="fill:blue">tramo</text><path d="M440 690 C460 690 440 990 460 990" style="fill:transparent;stroke:black" /><text x="470" y="990" font-size="8" style="fill:black">distancia: </text><text x="470" y="1000" font-size="8" style="fill:black">latitud: 47º 13' 18.65'' N</text><text x="470" y="1010" font-size="8" style="fill:black">longitud: 14º 45' 30.19'' E</text><text x="470" y="1020" font-size="8" style="fill:black">altitud: 694</text><text x="470" y="1030" font-size="8" style="fill:black">sector: 1</text><rect x="460" y="1020" width="200" height="40" style="fill:white;stroke:black;stroke-width:1" /><text x="470" y="1030" font-size="10" style="fill:blue">tramo</text><path d="M440 690 C460 690 440 1040 460 1040" style="fill:transparent;stroke:black" /><text x="470" y="1040" font-size="8" style="fill:black">distancia: </text><text x="470" y="1050" font-size="8" style="fill:black">latitud: 47º 13' 22.02'' N</text><text x="470" y="1060" font-size="8" style="fill:black">longitud: 14º 45' 27.21'' E</text><text x="470" y="1070" font-size="8" style="fill:black">altitud: 694</text><text x="470" y="1080" font-size="8" style="fill:black">sector: 1</text><rect x="460" y="1070" width="200" height="40" style="fill:white;stroke:black;stroke-width:1" /><text x="470" y="1080" font-size="10" style="fill:blue">tramo</text><path d="M440 690 C460 690 440 1090 460 1090" style="fill:transparent;stroke:black" /><text x="470" y="1090" font-size="8" style="fill:black">distancia: </text><text x="470" y="1100" font-size="8" style="fill:black">latitud: 47º 13' 23.05'' N</text><text x="470" y="1110" font-size="8" style="fill:black">longitud: 14º 45' 25.78'' E</text><text x="470" y="1120" font-size="8" style="fill:black">altitud: 702</text><text x="470" y="1130" font-size="8" style="fill:black">sector: 1</text><rect x="460" y="1120" width="200" height="40" style="fill:white;stroke:black;stroke-width:1" /><text x="470" y="1130" font-size="10" style="fill:blue">tramo</text><path d="M440 690 C460 690 440 1140 460 1140" style="fill:transparent;stroke:black" /><text x="470" y="1140" font-size="8" style="fill:black">distancia: </text><text x="470" y="1150" font-size="8" style="fill:black">latitud: 47° 13' 25'' N</text><text x="470" y="1160" font-size="8" style="fill:black">longitud: 14° 45' 27'' E</text><text x="470" y="1170" font-size="8" style="fill:black">altitud: 704</text><text x="470" y="1180" font-size="8" style="fill:black">sector: 1</text><rect x="460" y="1170" width="200" height="40" style="fill:white;stroke:black;stroke-width:1" /><text x="470" y="1180" font-size="10" style="fill:blue">tramo</text><path d="M440 690 C460 690 440 1190 460 1190" style="fill:transparent;stroke:black" /><text x="470" y="1190" font-size="8" style="fill:black">distancia: </text><text x="470" y="1200" font-size="8" style="fill:black">latitud: 47° 13' 29'' N</text><text x="470" y="1210" font-size="8" style="fill:black">longitud: 14° 45' 22'' E</text><text x="470" y="1220" font-size="8" style="fill:black">altitud: 708</text><text x="470" y="1230" font-size="8" style="fill:black">sector: 1</text><rect x="460" y="1220" width="200" height="40" style="fill:white;stroke:black;stroke-width:1" /><text x="470" y="1230" font-size="10" style="fill:blue">tramo</text><path d="M440 690 C460 690 440 1240 460 1240" style="fill:transparent;stroke:black" /><text x="470" y="1240" font-size="8" style="fill:black">distancia: 1</text><text x="470" y="1250" font-size="8" style="fill:black">latitud: 47° 13' 34'' N</text><text x="470" y="1260" font-size="8" style="fill:black">longitud: 14° 45' 15'' E</text><text x="470" y="1270" font-size="8" style="fill:black">altitud: 728</text><text x="470" y="1280" font-size="8" style="fill:black">sector: 1</text><rect x="460" y="1270" width="200" height="40" style="fill:white;stroke:black;stroke-width:1" /><text x="470" y="1280" font-size="10" style="fill:blue">tramo</text><path d="M440 690 C460 690 440 1290 460 1290" style="fill:transparent;stroke:black" /><text x="470" y="1290" font-size="8" style="fill:black">distancia: </text><text x="470" y="1300" font-size="8" style="fill:black">latitud: 47° 13' 34.25'' N</text><text x="470" y="1310" font-size="8" style="fill:black">longitud: 14° 45' 14.62'' E</text><text x="470" y="1320" font-size="8" style="fill:black">altitud: 749</text><text x="470" y="1330" font-size="8" style="fill:black">sector: 1</text><rect x="460" y="1320" width="200" height="40" style="fill:white;stroke:black;stroke-width:1" /><text x="470" y="1330" font-size="10" style="fill:blue">tramo</text><path d="M440 690 C460 690 440 1340 460 1340" style="fill:transparent;stroke:black" /><text x="470" y="1340" font-size="8" style="fill:black">distancia: </text><text x="470" y="1350" font-size="8" style="fill:black">latitud: 47° 13' 34.58'' N</text><text x="470" y="1360" font-size="8" style="fill:black">longitud: 14° 45' 15.21'' E</text><text x="470" y="1370" font-size="8" style="fill:black">altitud: 749</text><text x="470" y="1380" font-size="8" style="fill:black">sector: 1</text><rect x="460" y="1370" width="200" height="40" style="fill:white;stroke:black;stroke-width:1" /><text x="470" y="1380" font-size="10" style="fill:blue">tramo</text><path d="M440 690 C460 690 440 1390 460 1390" style="fill:transparent;stroke:black" /><text x="470" y="1390" font-size="8" style="fill:black">distancia: </text><text x="470" y="1400" font-size="8" style="fill:black">latitud: 47º 13' 35'' N</text><text x="470" y="1410" font-size="8" style="fill:black">longitud: 14º 45' 22'' E</text><text x="470" y="1420" font-size="8" style="fill:black">altitud: 749</text><text x="470" y="1430" font-size="8" style="fill:black">sector: 1</text><rect x="460" y="1420" width="200" height="40" style="fill:white;stroke:black;stroke-width:1" /><text x="470" y="1430" font-size="10" style="fill:blue">tramo</text><path d="M440 690 C460 690 440 1440 460 1440" style="fill:transparent;stroke:black" /><text x="470" y="1440" font-size="8" style="fill:black">distancia: </text><text x="470" y="1450" font-size="8" style="fill:black">latitud: 47º 13' 35'' N</text><text x="470" y="1460" font-size="8" style="fill:black">longitud: 14º 45' 25'' E</text><text x="470" y="1470" font-size="8" style="fill:black">altitud: 739</text><text x="470" y="1480" font-size="8" style="fill:black">sector: 2</text><rect x="460" y="1470" width="200" height="40" style="fill:white;stroke:black;stroke-width:1" /><text x="470" y="1480" font-size="10" style="fill:blue">tramo</text><path d="M440 690 C460 690 440 1490 460 1490" style="fill:transparent;stroke:black" /><text x="470" y="1490" font-size="8" style="fill:black">distancia: </text><text x="470" y="1500" font-size="8" style="fill:black">latitud: 47° 13' 34'' N</text><text x="470" y="1510" font-size="8" style="fill:black">longitud: 14° 45' 33'' E</text><text x="470" y="1520" font-size="8" style="fill:black">altitud: 739</text><text x="470" y="1530" font-size="8" style="fill:black">sector: 2</text><rect x="460" y="1520" width="200" height="40" style="fill:white;stroke:black;stroke-width:1" /><text x="470" y="1530" font-size="10" style="fill:blue">tramo</text><path d="M440 690 C460 690 440 1540 460 1540" style="fill:transparent;stroke:black" /><text x="470" y="1540" font-size="8" style="fill:black">distancia: </text><text x="470" y="1550" font-size="8" style="fill:black">latitud: 47º 13' 33.02'' N</text><text x="470" y="1560" font-size="8" style="fill:black">longitud: 14º 45' 40.90'' E</text><text x="470" y="1570" font-size="8" style="fill:black">altitud: 727</text><text x="470" y="1580" font-size="8" style="fill:black">sector: 2</text><rect x="460" y="1570" width="200" height="40" style="fill:white;stroke:black;stroke-width:1" /><text x="470" y="1580" font-size="10" style="fill:blue">tramo</text><path d="M440 690 C460 690 440 1590 460 1590" style="fill:transparent;stroke:black" /><text x="470" y="1590" font-size="8" style="fill:black">distancia: </text><text x="470" y="1600" font-size="8" style="fill:black">latitud: 47º 13' 32.63'' N</text><text x="470" y="1610" font-size="8" style="fill:black">longitud: 14º 45' 51.12'' E</text><text x="470" y="1620" font-size="8" style="fill:black">altitud: 724</text><text x="470" y="1630" font-size="8" style="fill:black">sector: </text><rect x="460" y="1620" width="200" height="40" style="fill:white;stroke:black;stroke-width:1" /><text x="470" y="1630" font-size="10" style="fill:blue">tramo</text><path d="M440 690 C460 690 440 1640 460 1640" style="fill:transparent;stroke:black" /><text x="470" y="1640" font-size="8" style="fill:black">distancia: </text><text x="470" y="1650" font-size="8" style="fill:black">latitud: 47° 13' 32.34'' N</text><text x="470" y="1660" font-size="8" style="fill:black">longitud: 14° 45' 52.46'' E</text><text x="470" y="1670" font-size="8" style="fill:black">altitud: 724</text><text x="470" y="1680" font-size="8" style="fill:black">sector: 2</text><rect x="460" y="1670" width="200" height="40" style="fill:white;stroke:black;stroke-width:1" /><text x="470" y="1680" font-size="10" style="fill:blue">tramo</text><path d="M440 690 C460 690 440 1690 460 1690" style="fill:transparent;stroke:black" /><text x="470" y="1690" font-size="8" style="fill:black">distancia: </text><text x="470" y="1700" font-size="8" style="fill:black">latitud: 47° 13' 32'' N</text><text x="470" y="1710" font-size="8" style="fill:black">longitud: 14° 45' 53'' E</text><text x="470" y="1720" font-size="8" style="fill:black">altitud: 724</text><text x="470" y="1730" font-size="8" style="fill:black">sector: 2</text><rect x="460" y="1720" width="200" height="40" style="fill:white;stroke:black;stroke-width:1" /><text x="470" y="1730" font-size="10" style="fill:blue">tramo</text><path d="M440 690 C460 690 440 1740 460 1740" style="fill:transparent;stroke:black" /><text x="470" y="1740" font-size="8" style="fill:black">distancia: </text><text x="470" y="1750" font-size="8" style="fill:black">latitud: 47° 13' 30.93'' N</text><text x="470" y="1760" font-size="8" style="fill:black">longitud: 14° 45' 52.51'' E</text><text x="470" y="1770" font-size="8" style="fill:black">altitud: 724</text><text x="470" y="1780" font-size="8" style="fill:black">sector: 2</text><rect x="460" y="1770" width="200" height="40" style="fill:white;stroke:black;stroke-width:1" /><text x="470" y="1780" font-size="10" style="fill:blue">tramo</text><path d="M440 690 C460 690 440 1790 460 1790" style="fill:transparent;stroke:black" /><text x="470" y="1790" font-size="8" style="fill:black">distancia: </text><text x="470" y="1800" font-size="8" style="fill:black">latitud: 47° 13' 30'' N</text><text x="470" y="1810" font-size="8" style="fill:black">longitud: 14° 45' 51'' E</text><text x="470" y="1820" font-size="8" style="fill:black">altitud: 724</text><text x="470" y="1830" font-size="8" style="fill:black">sector: 2</text><rect x="460" y="1820" width="200" height="40" style="fill:white;stroke:black;stroke-width:1" /><text x="470" y="1830" font-size="10" style="fill:blue">tramo</text><path d="M440 690 C460 690 440 1840 460 1840" style="fill:transparent;stroke:black" /><text x="470" y="1840" font-size="8" style="fill:black">distancia: </text><text x="470" y="1850" font-size="8" style="fill:black">latitud: 47º 13' 28.64'' N</text><text x="470" y="1860" font-size="8" style="fill:black">longitud: 14º 45' 49.41'' E</text><text x="470" y="1870" font-size="8" style="fill:black">altitud: 724</text><text x="470" y="1880" font-size="8" style="fill:black">sector: 2</text><rect x="460" y="1870" width="200" height="40" style="fill:white;stroke:black;stroke-width:1" /><text x="470" y="1880" font-size="10" style="fill:blue">tramo</text><path d="M440 690 C460 690 440 1890 460 1890" style="fill:transparent;stroke:black" /><text x="470" y="1890" font-size="8" style="fill:black">distancia: </text><text x="470" y="1900" font-size="8" style="fill:black">latitud: 47° 13' 28'' N</text><text x="470" y="1910" font-size="8" style="fill:black">longitud: 14° 45' 47'' E</text><text x="470" y="1920" font-size="8" style="fill:black">altitud: 716</text><text x="470" y="1930" font-size="8" style="fill:black">sector: 2</text><rect x="460" y="1920" width="200" height="40" style="fill:white;stroke:black;stroke-width:1" /><text x="470" y="1930" font-size="10" style="fill:blue">tramo</text><path d="M440 690 C460 690 440 1940 460 1940" style="fill:transparent;stroke:black" /><text x="470" y="1940" font-size="8" style="fill:black">distancia: </text><text x="470" y="1950" font-size="8" style="fill:black">latitud: 47º 13' 27.65'' N</text><text x="470" y="1960" font-size="8" style="fill:black">longitud: 14º 45' 45.12'' E</text><text x="470" y="1970" font-size="8" style="fill:black">altitud: 716</text><text x="470" y="1980" font-size="8" style="fill:black">sector: 2</text><rect x="460" y="1970" width="200" height="40" style="fill:white;stroke:black;stroke-width:1" /><text x="470" y="1980" font-size="10" style="fill:blue">tramo</text><path d="M440 690 C460 690 440 1990 460 1990" style="fill:transparent;stroke:black" /><text x="470" y="1990" font-size="8" style="fill:black">distancia: </text><text x="470" y="2000" font-size="8" style="fill:black">latitud: 47º 13' 28.51'' N</text><text x="470" y="2010" font-size="8" style="fill:black">longitud: 14º 45' 35.16'' E</text><text x="470" y="2020" font-size="8" style="fill:black">altitud: 722</text><text x="470" y="2030" font-size="8" style="fill:black">sector: 2</text><rect x="460" y="2020" width="200" height="40" style="fill:white;stroke:black;stroke-width:1" /><text x="470" y="2030" font-size="10" style="fill:blue">tramo</text><path d="M440 690 C460 690 440 2040 460 2040" style="fill:transparent;stroke:black" /><text x="470" y="2040" font-size="8" style="fill:black">distancia: </text><text x="470" y="2050" font-size="8" style="fill:black">latitud: 47º 13' 28'' N</text><text x="470" y="2060" font-size="8" style="fill:black">longitud: 14º 45' 34'' E</text><text x="470" y="2070" font-size="8" style="fill:black">altitud: 722</text><text x="470" y="2080" font-size="8" style="fill:black">sector: 2</text><rect x="460" y="2070" width="200" height="40" style="fill:white;stroke:black;stroke-width:1" /><text x="470" y="2080" font-size="10" style="fill:blue">tramo</text><path d="M440 690 C460 690 440 2090 460 2090" style="fill:transparent;stroke:black" /><text x="470" y="2090" font-size="8" style="fill:black">distancia: </text><text x="470" y="2100" font-size="8" style="fill:black">latitud: 47° 13' 28'' N</text><text x="470" y="2110" font-size="8" style="fill:black">longitud: 14° 45' 33'' E</text><text x="470" y="2120" font-size="8" style="fill:black">altitud: 722</text><text x="470" y="2130" font-size="8" style="fill:black">sector: 2</text><rect x="460" y="2120" width="200" height="40" style="fill:white;stroke:black;stroke-width:1" /><text x="470" y="2130" font-size="10" style="fill:blue">tramo</text><path d="M440 690 C460 690 440 2140 460 2140" style="fill:transparent;stroke:black" /><text x="470" y="2140" font-size="8" style="fill:black">distancia: </text><text x="470" y="2150" font-size="8" style="fill:black">latitud: 47° 13' 27.24'' N</text><text x="470" y="2160" font-size="8" style="fill:black">longitud: 14° 45' 31.54'' E</text><text x="470" y="2170" font-size="8" style="fill:black">altitud: 711</text><text x="470" y="2180" font-size="8" style="fill:black">sector: 2</text><rect x="460" y="2170" width="200" height="40" style="fill:white;stroke:black;stroke-width:1" /><text x="470" y="2180" font-size="10" style="fill:blue">tramo</text><path d="M440 690 C460 690 440 2190 460 2190" style="fill:transparent;stroke:black" /><text x="470" y="2190" font-size="8" style="fill:black">distancia: </text><text x="470" y="2200" font-size="8" style="fill:black">latitud: 47° 13' 26.3'' N</text><text x="470" y="2210" font-size="8" style="fill:black">longitud: 14° 45' 31.1'' E</text><text x="470" y="2220" font-size="8" style="fill:black">altitud: 711</text><text x="470" y="2230" font-size="8" style="fill:black">sector: 2</text><rect x="460" y="2220" width="200" height="40" style="fill:white;stroke:black;stroke-width:1" /><text x="470" y="2230" font-size="10" style="fill:blue">tramo</text><path d="M440 690 C460 690 440 2240 460 2240" style="fill:transparent;stroke:black" /><text x="470" y="2240" font-size="8" style="fill:black">distancia: </text><text x="470" y="2250" font-size="8" style="fill:black">latitud: 47º 13' 25.37'' N</text><text x="470" y="2260" font-size="8" style="fill:black">longitud: 14º 45' 31.13'' E</text><text x="470" y="2270" font-size="8" style="fill:black">altitud: 711</text><text x="470" y="2280" font-size="8" style="fill:black">sector: 3</text><rect x="460" y="2270" width="200" height="40" style="fill:white;stroke:black;stroke-width:1" /><text x="470" y="2280" font-size="10" style="fill:blue">tramo</text><path d="M440 690 C460 690 440 2290 460 2290" style="fill:transparent;stroke:black" /><text x="470" y="2290" font-size="8" style="fill:black">distancia: </text><text x="470" y="2300" font-size="8" style="fill:black">latitud: 47° 13' 25'' N</text><text x="470" y="2310" font-size="8" style="fill:black">longitud: 14° 45' 32'' E</text><text x="470" y="2320" font-size="8" style="fill:black">altitud: 711</text><text x="470" y="2330" font-size="8" style="fill:black">sector: 3</text><rect x="460" y="2320" width="200" height="40" style="fill:white;stroke:black;stroke-width:1" /><text x="470" y="2330" font-size="10" style="fill:blue">tramo</text><path d="M440 690 C460 690 440 2340 460 2340" style="fill:transparent;stroke:black" /><text x="470" y="2340" font-size="8" style="fill:black">distancia: </text><text x="470" y="2350" font-size="8" style="fill:black">latitud: 47º 13' 24.69'' N</text><text x="470" y="2360" font-size="8" style="fill:black">longitud: 14º 45' 31.53'' E</text><text x="470" y="2370" font-size="8" style="fill:black">altitud: 711</text><text x="470" y="2380" font-size="8" style="fill:black">sector: 3</text><rect x="460" y="2370" width="200" height="40" style="fill:white;stroke:black;stroke-width:1" /><text x="470" y="2380" font-size="10" style="fill:blue">tramo</text><path d="M440 690 C460 690 440 2390 460 2390" style="fill:transparent;stroke:black" /><text x="470" y="2390" font-size="8" style="fill:black">distancia: </text><text x="470" y="2400" font-size="8" style="fill:black">latitud: 47° 13' 20'' N</text><text x="470" y="2410" font-size="8" style="fill:black">longitud: 14° 45' 35'' E</text><text x="470" y="2420" font-size="8" style="fill:black">altitud: 699</text><text x="470" y="2430" font-size="8" style="fill:black">sector: 3</text><rect x="460" y="2420" width="200" height="40" style="fill:white;stroke:black;stroke-width:1" /><text x="470" y="2430" font-size="10" style="fill:blue">tramo</text><path d="M440 690 C460 690 440 2440 460 2440" style="fill:transparent;stroke:black" /><text x="470" y="2440" font-size="8" style="fill:black">distancia: </text><text x="470" y="2450" font-size="8" style="fill:black">latitud: 47° 13' 20'' N</text><text x="470" y="2460" font-size="8" style="fill:black">longitud: 14° 45' 36'' E</text><text x="470" y="2470" font-size="8" style="fill:black">altitud: 698</text><text x="470" y="2480" font-size="8" style="fill:black">sector: 3</text><rect x="460" y="2470" width="200" height="40" style="fill:white;stroke:black;stroke-width:1" /><text x="470" y="2480" font-size="10" style="fill:blue">tramo</text><path d="M440 690 C460 690 440 2490 460 2490" style="fill:transparent;stroke:black" /><text x="470" y="2490" font-size="8" style="fill:black">distancia: </text><text x="470" y="2500" font-size="8" style="fill:black">latitud: 47° 13' 19.35'' N</text><text x="470" y="2510" font-size="8" style="fill:black">longitud: 14° 45' 38.01'' E</text><text x="470" y="2520" font-size="8" style="fill:black">altitud: 698</text><text x="470" y="2530" font-size="8" style="fill:black">sector: 3</text><rect x="460" y="2520" width="200" height="40" style="fill:white;stroke:black;stroke-width:1" /><text x="470" y="2530" font-size="10" style="fill:blue">tramo</text><path d="M440 690 C460 690 440 2540 460 2540" style="fill:transparent;stroke:black" /><text x="470" y="2540" font-size="8" style="fill:black">distancia: </text><text x="470" y="2550" font-size="8" style="fill:black">latitud: 47° 13' 19.6'' N</text><text x="470" y="2560" font-size="8" style="fill:black">longitud: 14° 45' 39.6'' E</text><text x="470" y="2570" font-size="8" style="fill:black">altitud: 698</text><text x="470" y="2580" font-size="8" style="fill:black">sector: 3</text><rect x="460" y="2570" width="200" height="40" style="fill:white;stroke:black;stroke-width:1" /><text x="470" y="2580" font-size="10" style="fill:blue">tramo</text><path d="M440 690 C460 690 440 2590 460 2590" style="fill:transparent;stroke:black" /><text x="470" y="2590" font-size="8" style="fill:black">distancia: </text><text x="470" y="2600" font-size="8" style="fill:black">latitud: 47º 13' 20'' N</text><text x="470" y="2610" font-size="8" style="fill:black">longitud: 14º 45' 41'' E</text><text x="470" y="2620" font-size="8" style="fill:black">altitud: 698</text><text x="470" y="2630" font-size="8" style="fill:black">sector: 3</text><rect x="460" y="2620" width="200" height="40" style="fill:white;stroke:black;stroke-width:1" /><text x="470" y="2630" font-size="10" style="fill:blue">tramo</text><path d="M440 690 C460 690 440 2640 460 2640" style="fill:transparent;stroke:black" /><text x="470" y="2640" font-size="8" style="fill:black">distancia: </text><text x="470" y="2650" font-size="8" style="fill:black">latitud: 47° 13' 21.92'' N</text><text x="470" y="2660" font-size="8" style="fill:black">longitud: 14° 45' 43.16'' E</text><text x="470" y="2670" font-size="8" style="fill:black">altitud: 698</text><text x="470" y="2680" font-size="8" style="fill:black">sector: 3</text><rect x="460" y="2670" width="200" height="40" style="fill:white;stroke:black;stroke-width:1" /><text x="470" y="2680" font-size="10" style="fill:blue">tramo</text><path d="M440 690 C460 690 440 2690 460 2690" style="fill:transparent;stroke:black" /><text x="470" y="2690" font-size="8" style="fill:black">distancia: </text><text x="470" y="2700" font-size="8" style="fill:black">latitud: 47° 13' 23'' N</text><text x="470" y="2710" font-size="8" style="fill:black">longitud: 14° 45' 46'' E</text><text x="470" y="2720" font-size="8" style="fill:black">altitud: 699</text><text x="470" y="2730" font-size="8" style="fill:black">sector: 3</text><rect x="460" y="2720" width="200" height="40" style="fill:white;stroke:black;stroke-width:1" /><text x="470" y="2730" font-size="10" style="fill:blue">tramo</text><path d="M440 690 C460 690 440 2740 460 2740" style="fill:transparent;stroke:black" /><text x="470" y="2740" font-size="8" style="fill:black">distancia: </text><text x="470" y="2750" font-size="8" style="fill:black">latitud: 47° 13' 23'' N</text><text x="470" y="2760" font-size="8" style="fill:black">longitud: 14° 46' 8'' E</text><text x="470" y="2770" font-size="8" style="fill:black">altitud: 702</text><text x="470" y="2780" font-size="8" style="fill:black">sector: 3</text><rect x="460" y="2770" width="200" height="40" style="fill:white;stroke:black;stroke-width:1" /><text x="470" y="2780" font-size="10" style="fill:blue">tramo</text><path d="M440 690 C460 690 440 2790 460 2790" style="fill:transparent;stroke:black" /><text x="470" y="2790" font-size="8" style="fill:black">distancia: </text><text x="470" y="2800" font-size="8" style="fill:black">latitud: 47° 13' 23.5'' N</text><text x="470" y="2810" font-size="8" style="fill:black">longitud: 14° 46' 10'' E</text><text x="470" y="2820" font-size="8" style="fill:black">altitud: 695</text><text x="470" y="2830" font-size="8" style="fill:black">sector: 3</text><rect x="460" y="2820" width="200" height="40" style="fill:white;stroke:black;stroke-width:1" /><text x="470" y="2830" font-size="10" style="fill:blue">tramo</text><path d="M440 690 C460 690 440 2840 460 2840" style="fill:transparent;stroke:black" /><text x="470" y="2840" font-size="8" style="fill:black">distancia: </text><text x="470" y="2850" font-size="8" style="fill:black">latitud: 47° 13' 23'' N</text><text x="470" y="2860" font-size="8" style="fill:black">longitud: 14° 46' 11'' E</text><text x="470" y="2870" font-size="8" style="fill:black">altitud: 695</text><text x="470" y="2880" font-size="8" style="fill:black">sector: 3</text><rect x="460" y="2870" width="200" height="40" style="fill:white;stroke:black;stroke-width:1" /><text x="470" y="2880" font-size="10" style="fill:blue">tramo</text><path d="M440 690 C460 690 440 2890 460 2890" style="fill:transparent;stroke:black" /><text x="470" y="2890" font-size="8" style="fill:black">distancia: </text><text x="470" y="2900" font-size="8" style="fill:black">latitud: 47° 13' 22'' N</text><text x="470" y="2910" font-size="8" style="fill:black">longitud: 14° 46' 12'' E</text><text x="470" y="2920" font-size="8" style="fill:black">altitud: 695</text><text x="470" y="2930" font-size="8" style="fill:black">sector: 3</text><rect x="460" y="2920" width="200" height="40" style="fill:white;stroke:black;stroke-width:1" /><text x="470" y="2930" font-size="10" style="fill:blue">tramo</text><path d="M440 690 C460 690 440 2940 460 2940" style="fill:transparent;stroke:black" /><text x="470" y="2940" font-size="8" style="fill:black">distancia: </text><text x="470" y="2950" font-size="8" style="fill:black">latitud: 47° 13' 17'' N</text><text x="470" y="2960" font-size="8" style="fill:black">longitud: 14° 46' 14'' E</text><text x="470" y="2970" font-size="8" style="fill:black">altitud: 689</text><text x="470" y="2980" font-size="8" style="fill:black">sector: 3</text><rect x="460" y="2970" width="200" height="40" style="fill:white;stroke:black;stroke-width:1" /><text x="470" y="2980" font-size="10" style="fill:blue">tramo</text><path d="M440 690 C460 690 440 2990 460 2990" style="fill:transparent;stroke:black" /><text x="470" y="2990" font-size="8" style="fill:black">distancia: </text><text x="470" y="3000" font-size="8" style="fill:black">latitud: 47° 13' 16.79'' N</text><text x="470" y="3010" font-size="8" style="fill:black">longitud: 14° 46' 14.29'' E</text><text x="470" y="3020" font-size="8" style="fill:black">altitud: 687</text><text x="470" y="3030" font-size="8" style="fill:black">sector: 3</text><rect x="460" y="3020" width="200" height="40" style="fill:white;stroke:black;stroke-width:1" /><text x="470" y="3030" font-size="10" style="fill:blue">tramo</text><path d="M440 690 C460 690 440 3040 460 3040" style="fill:transparent;stroke:black" /><text x="470" y="3040" font-size="8" style="fill:black">distancia: </text><text x="470" y="3050" font-size="8" style="fill:black">latitud: 47° 13' 16.34'' N</text><text x="470" y="3060" font-size="8" style="fill:black">longitud: 14° 46' 13.66'' E</text><text x="470" y="3070" font-size="8" style="fill:black">altitud: 685</text><text x="470" y="3080" font-size="8" style="fill:black">sector: 3</text><rect x="460" y="3070" width="200" height="40" style="fill:white;stroke:black;stroke-width:1" /><text x="470" y="3080" font-size="10" style="fill:blue">tramo</text><path d="M440 690 C460 690 440 3090 460 3090" style="fill:transparent;stroke:black" /><text x="470" y="3090" font-size="8" style="fill:black">distancia: </text><text x="470" y="3100" font-size="8" style="fill:black">latitud: 47° 13' 15.46'' N</text><text x="470" y="3110" font-size="8" style="fill:black">longitud: 14° 46' 11.61'' E</text><text x="470" y="3120" font-size="8" style="fill:black">altitud: 685</text><text x="470" y="3130" font-size="8" style="fill:black">sector: 3</text><rect x="460" y="3120" width="200" height="40" style="fill:white;stroke:black;stroke-width:1" /><text x="470" y="3130" font-size="10" style="fill:blue">tramo</text><path d="M440 690 C460 690 440 3140 460 3140" style="fill:transparent;stroke:black" /><text x="470" y="3140" font-size="8" style="fill:black">distancia: </text><text x="470" y="3150" font-size="8" style="fill:black">latitud: 47º 13' 15'' N</text><text x="470" y="3160" font-size="8" style="fill:black">longitud: 14º 46' 9'' E</text><text x="470" y="3170" font-size="8" style="fill:black">altitud: 679</text><text x="470" y="3180" font-size="8" style="fill:black">sector: 3</text><rect x="460" y="3170" width="200" height="40" style="fill:white;stroke:black;stroke-width:1" /><text x="470" y="3180" font-size="10" style="fill:blue">tramo</text><path d="M440 690 C460 690 440 3190 460 3190" style="fill:transparent;stroke:black" /><text x="470" y="3190" font-size="8" style="fill:black">distancia: </text><text x="470" y="3200" font-size="8" style="fill:black">latitud: 47° 13' 11.85'' N</text><text x="470" y="3210" font-size="8" style="fill:black">longitud: 14° 45' 53.48'' E</text><text x="470" y="3220" font-size="8" style="fill:black">altitud: 678</text><text x="470" y="3230" font-size="8" style="fill:black">sector: 3</text><rect x="240" y="3270" width="200" height="40" style="fill:white;stroke:black;stroke-width:1" /><text x="250" y="3280" font-size="10" style="fill:blue">resultados</text><path d="M220 40 C240 40 220 3290 240 3290" style="fill:transparent;stroke:black" /><rect x="460" y="3270" width="200" height="40" style="fill:white;stroke:black;stroke-width:1" /><text x="470" y="3280" font-size="10" style="fill:blue">ganador</text><path d="M440 3290 C460 3290 440 3290 460 3290" style="fill:transparent;stroke:black" /><rect x="526" y="3270" width="137" height="40" style="fill:green;stroke:black;stroke-width:1" /><text x="536" y="3280" font-size="8" style="fill:white">Marc Marquez</text><rect x="460" y="3320" width="200" height="40" style="fill:white;stroke:black;stroke-width:1" /><text x="470" y="3330" font-size="10" style="fill:blue">tiempo</text><path d="M440 3290 C460 3290 440 3340 460 3340" style="fill:transparent;stroke:black" /><rect x="526" y="3320" width="137" height="40" style="fill:green;stroke:black;stroke-width:1" /><text x="536" y="3330" font-size="8" style="fill:white">42m 11.006s</text><rect x="460" y="3370" width="200" height="40" style="fill:white;stroke:black;stroke-width:1" /><text x="470" y="3380" font-size="10" style="fill:blue">primer_puesto</text><path d="M440 3290 C460 3290 440 3390 460 3390" style="fill:transparent;stroke:black" /><rect x="526" y="3370" width="137" height="40" style="fill:green;stroke:black;stroke-width:1" /><text x="536" y="3380" font-size="8" style="fill:white">Marc Marquez</text><rect x="460" y="3420" width="200" height="40" style="fill:white;stroke:black;stroke-width:1" /><text x="470" y="3430" font-size="10" style="fill:blue">segundo_puesto</text><path d="M440 3290 C460 3290 440 3440 460 3440" style="fill:transparent;stroke:black" /><rect x="526" y="3420" width="137" height="40" style="fill:green;stroke:black;stroke-width:1" /><text x="536" y="3430" font-size="8" style="fill:white">Fermin Aldeguer</text><rect x="460" y="3470" width="200" height="40" style="fill:white;stroke:black;stroke-width:1" /><text x="470" y="3480" font-size="10" style="fill:blue">tercer_puesto</text><path d="M440 3290 C460 3290 440 3490 460 3490" style="fill:transparent;stroke:black" /><rect x="526" y="3470" width="137" height="40" style="fill:green;stroke:black;stroke-width:1" /><text x="536" y="3480" font-size="8" style="fill:white">Marco Bezzecchi</text></svg>